<svg xmlns="http://www.w3.org/2000/svg" xmlns:xlink="http://www.w3.org/1999/xlink" width="1024" zoomAndPan="magnify" viewBox="0 0 768 767.999994" height="1024" preserveAspectRatio="xMidYMid meet" version="1.0"><defs><g/><clipPath id="0ae4a575c9"><path d="M 165.484375 140.25 L 652.984375 140.25 L 652.984375 627.75 L 165.484375 627.75 Z M 165.484375 140.25 " clip-rule="nonzero"/></clipPath><clipPath id="f1bd94f557"><path d="M 240.484375 140.25 L 577.984375 140.25 C 619.40625 140.25 652.984375 173.828125 652.984375 215.25 L 652.984375 552.75 C 652.984375 594.171875 619.40625 627.75 577.984375 627.75 L 240.484375 627.75 C 199.0625 627.75 165.484375 594.171875 165.484375 552.75 L 165.484375 215.25 C 165.484375 173.828125 199.0625 140.25 240.484375 140.25 Z M 240.484375 140.25 " clip-rule="nonzero"/></clipPath><clipPath id="4c04ab5b97"><path d="M 343 327 L 353 327 L 353 336 L 343 336 Z M 343 327 " clip-rule="nonzero"/></clipPath><clipPath id="f816c3f87a"><path d="M 343.539062 332.570312 L 350.085938 327.039062 L 352.507812 329.90625 L 345.960938 335.433594 Z M 343.539062 332.570312 " clip-rule="nonzero"/></clipPath></defs><g clip-path="url(#0ae4a575c9)"><g clip-path="url(#f1bd94f557)"><path fill="#f2f2f2" d="M 165.484375 140.25 L 652.984375 140.25 L 652.984375 627.75 L 165.484375 627.75 Z M 165.484375 140.25 " fill-opacity="1" fill-rule="nonzero"/></g></g><g fill="#6f8c51" fill-opacity="1"><g transform="translate(233.261051, 511.657421)"><g><path d="M 34.125 0 L 34.125 -236.6875 L 91.203125 -236.6875 L 91.203125 -204.921875 L 95.703125 -204.0625 C 103.429688 -216.800781 112.476562 -226.171875 122.84375 -232.171875 C 133.21875 -238.179688 146.488281 -241.1875 162.65625 -241.1875 C 180.539062 -241.1875 194.914062 -237.644531 205.78125 -230.5625 C 216.65625 -223.488281 224.597656 -213.15625 229.609375 -199.5625 L 234.109375 -199.5625 C 241.410156 -213.726562 250.816406 -224.207031 262.328125 -231 C 273.847656 -237.789062 288.191406 -241.1875 305.359375 -241.1875 C 354.421875 -241.1875 378.953125 -213.863281 378.953125 -159.21875 L 378.953125 0 L 319.515625 0 L 319.515625 -151.71875 C 319.515625 -165.59375 316.796875 -175.601562 311.359375 -181.75 C 305.921875 -187.90625 297.195312 -190.984375 285.1875 -190.984375 C 252.5625 -190.984375 236.25 -169.164062 236.25 -125.53125 L 236.25 0 L 176.8125 0 L 176.8125 -151.71875 C 176.8125 -165.59375 174.054688 -175.601562 168.546875 -181.75 C 163.046875 -187.90625 154.285156 -190.984375 142.265625 -190.984375 C 126.960938 -190.984375 115.019531 -185.867188 106.4375 -175.640625 C 97.851562 -165.410156 93.5625 -149.132812 93.5625 -126.8125 L 93.5625 0 Z M 34.125 0 "/></g></g></g><g fill="#cdac79" fill-opacity="1"><g transform="translate(176.020379, 511.611)"><g><path d="M 34.078125 0 L 34.078125 -236.4375 L 91.75 -236.4375 L 91.75 -201.28125 L 96.25 -200.421875 C 101.957031 -213.566406 109.457031 -223.210938 118.75 -229.359375 C 128.039062 -235.503906 139.332031 -238.578125 152.625 -238.578125 C 166.050781 -238.578125 176.269531 -236.289062 183.28125 -231.71875 L 173.203125 -180.484375 L 168.703125 -179.625 C 164.835938 -181.195312 161.117188 -182.335938 157.546875 -183.046875 C 153.972656 -183.765625 149.613281 -184.125 144.46875 -184.125 C 127.894531 -184.125 115.25 -178.300781 106.53125 -166.65625 C 97.8125 -155.007812 93.453125 -136.328125 93.453125 -110.609375 L 93.453125 0 Z M 34.078125 0 "/></g></g></g><g clip-path="url(#4c04ab5b97)"><g clip-path="url(#f816c3f87a)"><path fill="#f2f2f2" d="M 343.539062 332.570312 L 350.085938 327.039062 L 352.507812 329.90625 L 345.960938 335.433594 Z M 343.539062 332.570312 " fill-opacity="1" fill-rule="nonzero"/></g></g></svg>
